<svg id="Capa_1" enable-background="new 0 0 512 512" height="512" viewBox="0 0 512 512" width="512" xmlns="http://www.w3.org/2000/svg"><g><path d="m356.867 447.872h-20.136c4.751-18.75 7.417-39.031 7.942-60.482.346-13.825-.211-28.323-1.654-43.09-1.621-16.644-4.411-34.083-8.293-51.835-.493-2.257-1.016-4.515-1.556-6.791-3.43-14.273-7.854-28.749-13.147-43.018-7.259-19.598-16.306-39.313-26.89-58.598-8.021-14.613-16.93-29-26.479-42.755-33.332-48.091-73.746-87.781-105.532-103.656-.338-.177-.688-.336-1.049-.476l-40.637-15.693v-11.478c0-5.522-4.477-10-10-10s-10 4.478-10 10v437.872h-12.091c-26.281 0-47.662 21.381-47.662 47.662v6.466c0 5.522 4.477 10 10 10h344.845c5.522 0 10-4.478 10-10v-6.466c.001-26.281-21.38-47.662-47.661-47.662zm-41.404-149.862c2.735 12.675 4.884 25.158 6.418 37.26h-155.41v-37.26zm-148.992 79.13v-21.87h157.411c.537 7.415.832 14.725.883 21.87zm0 20h157.778c-1.078 18.037-3.829 35.036-8.212 50.73h-149.566zm137.15-141.01c2.548 7.282 4.852 14.597 6.892 21.88h-144.042v-21.88zm-7.631-20h-129.519v-37.26h111.932c6.551 12.32 12.437 24.791 17.587 37.26zm-28.886-57.26h-100.633v-21.87h86.696c4.843 7.149 9.501 14.459 13.937 21.87zm-28.27-41.87h-72.363v-72.927c22.552 15.445 48.846 41.906 72.363 72.927zm-119.398-94.082 27.03 10.438v394.516h-27.03zm-59.528 449.082c1.741-13.59 13.382-24.128 27.438-24.128h269.522c14.056 0 25.695 10.538 27.437 24.128z"/><path d="m384.266 42.384c-25.181 0-45.667 20.486-45.667 45.667s20.486 45.667 45.667 45.667 45.667-20.486 45.667-45.667-20.486-45.667-45.667-45.667zm0 71.334c-14.153 0-25.667-11.514-25.667-25.667s11.514-25.667 25.667-25.667 25.667 11.514 25.667 25.667-11.514 25.667-25.667 25.667z"/><path d="m384.266 31.435c5.522 0 10-4.478 10-10v-11.435c0-5.522-4.478-10-10-10s-10 4.478-10 10v11.435c0 5.522 4.477 10 10 10z"/><path d="m394.266 166.102v-11.435c0-5.522-4.478-10-10-10s-10 4.478-10 10v11.435c0 5.522 4.478 10 10 10s10-4.478 10-10z"/><path d="m462.317 78.051h-11.435c-5.522 0-10 4.478-10 10s4.478 10 10 10h11.435c5.522 0 10-4.478 10-10s-4.478-10-10-10z"/><path d="m306.215 98.051h11.436c5.522 0 10-4.478 10-10s-4.478-10-10-10h-11.436c-5.522 0-10 4.478-10 10s4.478 10 10 10z"/><path d="m437.593 44.725c2.56 0 5.119-.977 7.071-2.93l9.153-9.154c3.905-3.905 3.905-10.236-.001-14.142-3.904-3.906-10.237-3.905-14.142.001l-9.153 9.154c-3.905 3.905-3.905 10.236.001 14.142 1.953 1.953 4.511 2.929 7.071 2.929z"/><path d="m323.868 134.306-9.154 9.154c-3.905 3.905-3.905 10.237 0 14.143 1.953 1.952 4.512 2.929 7.071 2.929s5.118-.977 7.071-2.929l9.154-9.154c3.905-3.905 3.905-10.237 0-14.143-3.905-3.905-10.235-3.905-14.142 0z"/><path d="m444.664 134.307c-3.903-3.905-10.236-3.905-14.142-.001-3.906 3.905-3.906 10.236-.001 14.142l9.153 9.154c1.952 1.953 4.512 2.93 7.071 2.93s5.118-.977 7.07-2.929c3.906-3.905 3.906-10.236.001-14.142z"/><path d="m323.868 41.796c1.953 1.952 4.512 2.929 7.071 2.929s5.118-.977 7.071-2.929c3.905-3.905 3.905-10.237 0-14.143l-9.154-9.154c-3.906-3.904-10.236-3.904-14.143 0-3.905 3.905-3.905 10.237 0 14.143z"/></g></svg>