<svg id="Capa_1" fill="#16842f" enable-background="new 0 0 511.928 511.928" height="512" viewBox="0 0 511.928 511.928" width="512" xmlns="http://www.w3.org/2000/svg"><g><path d="m486.126 114.598 19.841-19.841c7.972-7.881 7.919-21.27.006-29.091l-7.195-7.195c-7.88-7.974-21.224-7.965-29.092-.006l-51.627 51.627c-2.929 2.93-2.929 7.678 0 10.607 2.929 2.928 7.678 2.928 10.606 0l51.633-51.633c2.127-2.159 5.735-2.153 7.867.005l7.206 7.206c2.148 2.123 2.153 5.738-.005 7.867l-150.293 150.294c-4.527-5.496-9.576-10.546-15.073-15.073l73.645-73.646c2.929-2.93 2.929-7.678 0-10.607-2.929-2.928-7.678-2.928-10.606 0l-75.418 75.418c-16.685-10.252-36.304-16.172-57.281-16.172-37.511 0-72.626 19.47-92.691 51.085-1.81.135-3.622.42-5.419.877l-54.112 13.775c-3.867-10.513-13.982-18.033-25.82-18.033h-74.798c-4.142 0-7.5 3.357-7.5 7.5s3.358 7.5 7.5 7.5h74.798c6.887 0 12.49 5.598 12.499 12.483.001.044-.001.088.001.133v24.338c0 4.143 3.358 7.5 7.5 7.5s7.5-3.357 7.5-7.5v-18.87l56.129-14.289c4.168-1.059 8.493-.436 12.183 1.76l137.359 81.586-11.851 9.884c-9.973 8.314-24.171 9.444-35.332 2.816l-.005-.003c-.001-.001-.003-.001-.004-.002l-73.447-43.628c-3.561-2.117-8.163-.944-10.278 2.618s-.943 8.163 2.618 10.278l73.45 43.63 53.641 31.866c5.799 3.43 12.573 4.405 19.071 2.743l113.999-29.039c7.218-1.836 14.713-.755 21.111 3.043 6.656 3.951 11.214 10.294 12.956 17.809l-187.335 47.721c-2.845.723-5.833.654-8.642-.196l-175.622-53.345v-61.382c0-4.143-3.358-7.5-7.5-7.5s-7.5 3.357-7.5 7.5v63.871c0 6.893-5.607 12.5-12.5 12.5h-74.799c-4.142 0-7.5 3.357-7.5 7.5s3.358 7.5 7.5 7.5h74.798c10.743 0 20.061-6.196 24.585-15.199l174.18 52.907c5.429 1.647 11.204 1.778 16.699.38l190.036-48.408c3.168-.805 5.831-2.798 7.497-5.611 2.366-3.995 1.544-8.385.453-12.668-2.825-11.097-9.803-20.428-19.647-26.274-9.842-5.845-21.373-7.51-32.473-4.683-1.204.307-114.084 29.15-115.223 29.263 26.002-20.665 41.674-52.455 41.674-85.996 0-20.978-5.921-40.596-16.172-57.281l58.703-58.703 27.917 27.908c2.474 2.474 5.723 3.71 8.972 3.71 3.25 0 6.5-1.237 8.974-3.71l16.264-16.264c4.917-4.941 4.916-12.981-.014-17.933l-10.386-10.387 5.119-5.112 2.521 2.515c4.949 4.947 12.999 4.948 17.947 0l16.237-16.237c2.402-2.39 3.728-5.574 3.732-8.966.004-3.396-1.316-6.59-3.719-8.994zm-273.648 150.985c11.617-14.489 29.012-22.945 47.862-22.945 33.889 0 61.46 27.571 61.46 61.46 0 8.131-1.624 16.166-4.731 23.608zm142.602 38.515c0 31.699-16.229 61.583-42.621 79.046l-15.09-8.964c5.693-1.742 11.097-4.607 15.855-8.572l14.873-12.404c3.046-2.534 4.676-6.405 4.362-10.354-.199-2.499-1.165-4.84-2.708-6.736 4.622-9.99 7.049-20.932 7.049-32.015 0-42.16-34.3-76.46-76.46-76.46-24.181 0-46.435 11.173-60.865 30.222l-13.701-8.138c-.699-.415-1.412-.793-2.133-1.15 17.723-24.4 46.302-39.214 76.698-39.214 52.241-.001 94.741 42.499 94.741 94.739zm125.868-147.495-2.511-2.505c-2.395-2.407-5.585-3.732-8.982-3.732s-6.587 1.325-8.965 3.716l-8.394 8.384c-2.402 2.403-3.723 5.597-3.719 8.993.004 3.392 1.33 6.576 3.719 8.952l10.387 10.388-12.983 12.983-26.283-26.274 52.303-52.303 18.414 18.413z"/></g></svg>