<?xml version="1.0" ?><svg fill="#5e5e5e" viewBox="0 0 64 64" xmlns="http://www.w3.org/2000/svg"><title/><g data-name="Personal Development" id="Personal_Development"><path d="M40,38.12V44H38V38.12a6,6,0,0,0-1.76-4.25,6.44,6.44,0,0,0-1.91-1.27l-.06,0a8.49,8.49,0,0,1-1,.27l-.15,0A7.9,7.9,0,0,1,32,33a8,8,0,0,1-1.1-.09l-.15,0a7.13,7.13,0,0,1-1-.26l-.07,0A6,6,0,0,0,26,38.12V44H24V38.12a8,8,0,0,1,3.61-6.65A7.12,7.12,0,0,1,32,18.75a7.26,7.26,0,0,1,1.16.1h0A7.05,7.05,0,0,1,39,24.52c0,.23.08.47.1.71s0,.43,0,.65a7,7,0,0,1-2.72,5.58A7.86,7.86,0,0,1,40,38.12Z"/><path d="M42.5,14a3.47,3.47,0,0,0,.58-.05l.17,0,.4-.11.17-.06a3.5,3.5,0,0,0,.42-.21l.09,0a3.53,3.53,0,0,0,.45-.33l.11-.1a3.51,3.51,0,0,0,.29-.3l.11-.14a3.49,3.49,0,0,0,.24-.35l.07-.12,0,0a8.5,8.5,0,0,1-4.46,16.3l-.31,2a10.62,10.62,0,0,0,1.66.13A10.5,10.5,0,0,0,46,10.09a3.49,3.49,0,0,0-7,.41c0,.14,0,.28,0,.46A3.51,3.51,0,0,0,42.5,14Zm0-5A1.5,1.5,0,0,1,44,10.5c0,.08,0,.16,0,.2a1.5,1.5,0,0,1-3,0c0-.07,0-.14,0-.21A1.5,1.5,0,0,1,42.5,9Z"/><path d="M21.5,50a3.47,3.47,0,0,0-.58.05l-.17,0-.4.11-.17.06a3.5,3.5,0,0,0-.42.21l-.09,0a3.53,3.53,0,0,0-.45.33l-.11.1a3.51,3.51,0,0,0-.29.3l-.11.14a3.49,3.49,0,0,0-.24.35l-.07.12,0,0A8.5,8.5,0,0,1,21.5,35.5h.45l.11-2H21.5A10.5,10.5,0,0,0,18,53.91a3.49,3.49,0,0,0,7-.41c0-.14,0-.28,0-.46A3.51,3.51,0,0,0,21.5,50Zm0,5A1.5,1.5,0,0,1,20,53.5c0-.08,0-.15,0-.2a1.5,1.5,0,0,1,3,0c0,.07,0,.14,0,.21A1.5,1.5,0,0,1,21.5,55Z"/><path d="M53,49a3,3,0,0,1-3,3H40a3,3,0,0,1,0-6H50A3,3,0,0,1,53,49Z"/><path d="M27,15a3,3,0,0,1-3,3H14a3,3,0,0,1,0-6H24A3,3,0,0,1,27,15Z"/></g></svg>